<?xml version="1.0" encoding="UTF-8"?>
<svg id="Layer_1" xmlns="http://www.w3.org/2000/svg" version="1.1" xmlns:cc="http://creativecommons.org/ns#" xmlns:dc="http://purl.org/dc/elements/1.1/" xmlns:inkscape="http://www.inkscape.org/namespaces/inkscape" xmlns:rdf="http://www.w3.org/1999/02/22-rdf-syntax-ns#" xmlns:sodipodi="http://sodipodi.sourceforge.net/DTD/sodipodi-0.dtd" xmlns:svg="http://www.w3.org/2000/svg" viewBox="0 0 72.22 76.21">
  <!-- Generator: Adobe Illustrator 30.5.1, SVG Export Plug-In . SVG Version: 2.1.4 Build 3)  -->
  <defs>
    <style>
      .st0 {
        fill: #fff;
      }

      .st1 {
        fill: none;
        stroke: #fff;
        stroke-linecap: round;
        stroke-linejoin: round;
        stroke-width: 1.93px;
      }
    </style>
  </defs>
  <path id="path72" class="st0" d="M64.14,7.45C62.24,5.75,54.64.15,37.54.05c0,0-20.1-1.2-29.9,7.8C2.15,13.35.25,21.25.05,31.15s-.5,28.4,17.4,33.5v7.7s-.1,3.1,1.9,3.7c2.5.8,3.9-1.6,6.3-4.1,1.3-1.4,3.1-3.4,4.4-5,12.2,1,21.6-1.3,22.7-1.7,2.5-.8,16.4-2.6,18.7-21.1,2.4-19.2-1-31.3-7.3-36.7h0ZM66.24,42.65c-1.9,15.5-13.2,16.5-15.3,17.1-.9.3-9.1,2.3-19.5,1.7,0,0-7.7,9.3-10.2,11.8-.4.4-.8.5-1.1.5-.4-.1-.5-.6-.5-1.3,0-1,.1-12.8.1-12.8-15.1-4.2-14.2-20-14.1-28.3.2-8.3,1.7-15,6.3-19.6,8.3-7.5,25.4-6.4,25.4-6.4,14.4.1,21.3,4.4,22.9,5.9,5.2,4.6,7.9,15.5,6,31.4h0Z" inkscape:connector-curvature="0"/>
  <path id="path74" class="st1" d="M44.54,30.75c-.2-3.8-2.1-5.8-5.8-6" inkscape:connector-curvature="0"/>
  <path id="path76" class="st1" d="M49.54,32.35c.1-3.5-1-6.5-3.1-8.8-2.2-2.4-5.2-3.7-9-4" inkscape:connector-curvature="0"/>
  <path id="path78" class="st1" d="M54.54,34.35c0-6.1-1.9-10.9-5.5-14.4s-8.1-5.3-13.5-5.3" inkscape:connector-curvature="0"/>
  <path id="path80" class="st0" d="M38.94,43.65s1.4.1,2.1-.8l1.4-1.8c.7-.9,2.3-1.5,4-.6.9.5,2.5,1.5,3.5,2.3,1.1.8,3.3,2.6,3.3,2.6,1.1.9,1.3,2.2.6,3.6-.7,1.3-1.7,2.5-3,3.6-1,.9-2,1.3-3,1.5h-.4c-.4,0-.9-.1-1.3-.2-1.5-.4-4-1.5-8.3-3.8-2.7-1.5-5-3.1-6.9-4.6-1-.8-2.1-1.7-3.1-2.8l-.4-.4c-1.1-1.1-2-2.1-2.8-3.1-1.5-1.9-3.1-4.2-4.6-6.9-2.3-4.2-3.4-6.7-3.8-8.3-.1-.4-.2-.8-.2-1.3v-.4c.1-1,.6-2,1.5-3,1.1-1.2,2.3-2.2,3.6-3,1.4-.7,2.7-.5,3.6.6,0,0,1.8,2.2,2.6,3.3.7,1,1.7,2.6,2.3,3.5.9,1.6.3,3.3-.5,4l-1.8,1.4c-.9.7-.8,2.1-.8,2.1,0,0,2.5,9.9,12.4,12.5h0Z" inkscape:connector-curvature="0"/>
</svg>